<svg id="Grupo_183" data-name="Grupo 183" xmlns="http://www.w3.org/2000/svg" xmlns:xlink="http://www.w3.org/1999/xlink" width="19.336" height="15.578" viewBox="0 0 19.336 15.578">
  <defs>
    <clipPath id="clip-path">
      <rect id="Rectángulo_204" data-name="Rectángulo 204" width="19.336" height="15.578" fill="none"/>
    </clipPath>
  </defs>
  <g id="Grupo_182" data-name="Grupo 182" clip-path="url(#clip-path)">
    <path id="Trazado_240" data-name="Trazado 240" d="M4.222,6.536h.236l7.694.046q2.8.018,5.609.042a3.525,3.525,0,0,1,.747.065,1.082,1.082,0,0,1,.823,1.167A1.135,1.135,0,0,1,18.269,8.98C18.037,9,17.8,9,17.569,9L4.336,8.946H4.112c.069.079.11.13.155.176q2.057,2.143,4.116,4.285a1.342,1.342,0,0,1,.446.94,1.178,1.178,0,0,1-.687,1.1,1.107,1.107,0,0,1-1.194-.092,2.9,2.9,0,0,1-.431-.382q-2.754-2.847-5.5-5.7c-.195-.2-.393-.4-.58-.609A1.189,1.189,0,0,1,.455,6.809C.964,6.286,1.5,5.785,2.019,5.276q2.45-2.383,4.9-4.763a1.569,1.569,0,0,1,.862-.5A1.2,1.2,0,0,1,9.107.971a1.1,1.1,0,0,1-.247.949c-.2.23-.42.438-.637.65Q6.264,4.478,4.3,6.383c-.033.032-.061.067-.092.1l.011.051" transform="translate(0 0)" fill="#fff"/>
  </g>
</svg>
