<svg xmlns="http://www.w3.org/2000/svg" width="79.167" height="58.994" viewBox="0 0 79.167 58.994">
  <g id="logo-control-legal" transform="translate(0 0.289)">
    <g id="Grupo_60" data-name="Grupo 60" transform="translate(0 51.652)">
      <path id="Trazado_15" data-name="Trazado 15" d="M0,246.277a3.912,3.912,0,0,1,.142-1.07,3.609,3.609,0,0,1,.4-.913,3.52,3.52,0,0,1,.6-.738,3.639,3.639,0,0,1,.767-.548,3.872,3.872,0,0,1,.884-.34,3.917,3.917,0,0,1,.957-.117,4.834,4.834,0,0,1,.608.035q.276.035.5.082t.413.1q.186.051.336.082l-.084,1.53H4.8l-.283-.831a1.148,1.148,0,0,0-.186-.137.989.989,0,0,0-.228-.1,1.88,1.88,0,0,0-.3-.057,3.637,3.637,0,0,0-.411-.02,1.751,1.751,0,0,0-.778.179,1.862,1.862,0,0,0-.641.522,2.593,2.593,0,0,0-.433.844,3.8,3.8,0,0,0-.159,1.147,5.011,5.011,0,0,0,.06.778,4.019,4.019,0,0,0,.179.719,3.194,3.194,0,0,0,.3.623,2.161,2.161,0,0,0,.411.491,1.79,1.79,0,0,0,.522.321,1.69,1.69,0,0,0,.632.115,2.982,2.982,0,0,0,.475-.033,1.711,1.711,0,0,0,.347-.091.867.867,0,0,0,.241-.137.817.817,0,0,0,.157-.173l.314-.8h.6v1.446a1.368,1.368,0,0,0-.356.073q-.193.064-.458.139a6.16,6.16,0,0,1-.624.137,5.077,5.077,0,0,1-.849.062,3.655,3.655,0,0,1-1.395-.252,3.038,3.038,0,0,1-1.048-.7A3,3,0,0,1,.228,247.6,3.745,3.745,0,0,1,0,246.277" transform="translate(0 -242.55)" fill="#fff"/>
      <path id="Trazado_16" data-name="Trazado 16" d="M30.287,246.148a4.183,4.183,0,0,1,.29-1.506,3.514,3.514,0,0,1,.718-1.128,3.117,3.117,0,0,1,1.028-.71,3.193,3.193,0,0,1,1.218-.256,3.017,3.017,0,0,1,1.282.248,2.757,2.757,0,0,1,.975.718,3.211,3.211,0,0,1,.612,1.094,4.085,4.085,0,0,1,.2,1.38,4.517,4.517,0,0,1-.27,1.508,3.5,3.5,0,0,1-.676,1.134,2.9,2.9,0,0,1-1,.716,3.332,3.332,0,0,1-2.553,0,2.9,2.9,0,0,1-1-.728,3.165,3.165,0,0,1-.626-1.1,4.041,4.041,0,0,1-.2-1.373M33.493,249a1.394,1.394,0,0,0,1.315-.771,3.04,3.04,0,0,0,.307-.944,7.626,7.626,0,0,0,.1-1.291,5.179,5.179,0,0,0-.044-.67,4.258,4.258,0,0,0-.137-.652,3.359,3.359,0,0,0-.234-.588,2.121,2.121,0,0,0-.334-.48,1.459,1.459,0,0,0-.438-.323,1.244,1.244,0,0,0-.542-.117,1.546,1.546,0,0,0-.8.2,1.587,1.587,0,0,0-.562.579,2.962,2.962,0,0,0-.332.935,6.663,6.663,0,0,0-.108,1.267,4.474,4.474,0,0,0,.049.648,4.315,4.315,0,0,0,.146.65,3.48,3.48,0,0,0,.248.6,2.269,2.269,0,0,0,.349.5,1.546,1.546,0,0,0,.453.336,1.27,1.27,0,0,0,.564.124" transform="translate(-23.88 -242.549)" fill="#fff"/>
      <path id="Trazado_17" data-name="Trazado 17" d="M63.549,249.2l.721-.172V243.6l-.69-.088v-.672h1.954l2.79,4.722.5,1.154v-5.107l-.769-.106v-.663h2.273v.663l-.663.093v6.111H68.284l-2.631-4.289-.531-1.225v4.82l.88.181v.513H63.549Z" transform="translate(-50.107 -242.78)" fill="#fff"/>
      <path id="Trazado_18" data-name="Trazado 18" d="M99.059,249.2l1.048-.159v-5.562l-1.384.106-.305.867-.628.026.106-1.632h5.637l-.009,1.609-.513.058-.292-.929-1.353-.106v5.558l1.061.164v.513H99.059Z" transform="translate(-77.106 -242.78)" fill="#fff"/>
      <path id="Trazado_19" data-name="Trazado 19" d="M127.2,248.966l.8-.168v-5.451l-.7-.093v-.641h1.065q.451,0,.891-.031t.824-.031a5.086,5.086,0,0,1,1,.093,2.374,2.374,0,0,1,.8.3,1.508,1.508,0,0,1,.528.557,1.75,1.75,0,0,1,.19.853,2.044,2.044,0,0,1-.38,1.26,2.257,2.257,0,0,1-1.11.76,1.222,1.222,0,0,1,.38.292,3.513,3.513,0,0,1,.345.451q.163.252.314.526t.29.515a4.225,4.225,0,0,0,.272.418.714.714,0,0,0,.261.234l.53.15v.513h-1.609a.279.279,0,0,1-.2-.126,1.925,1.925,0,0,1-.212-.334q-.108-.208-.225-.471l-.239-.537q-.122-.274-.254-.537a3.679,3.679,0,0,0-.276-.466,1.571,1.571,0,0,0-.3-.325.459.459,0,0,0-.316-.113l-.61.009v2.233l.875.155v.513H127.2Zm2.056-3.02q.08.013.192.022c.075.006.153.01.232.011s.158,0,.234,0,.146-.005.208-.011a1.664,1.664,0,0,0,.46-.091,1.045,1.045,0,0,0,.391-.245,1.193,1.193,0,0,0,.272-.447,2.025,2.025,0,0,0,.1-.69,1.85,1.85,0,0,0-.071-.515,1.062,1.062,0,0,0-.239-.429,1.125,1.125,0,0,0-.447-.287,1.929,1.929,0,0,0-.69-.1l-.347.011a.967.967,0,0,0-.3.051Z" transform="translate(-100.297 -242.55)" fill="#fff"/>
      <path id="Trazado_20" data-name="Trazado 20" d="M158.242,246.148a4.183,4.183,0,0,1,.29-1.506,3.514,3.514,0,0,1,.718-1.128,3.117,3.117,0,0,1,1.028-.71,3.193,3.193,0,0,1,1.218-.256,3.017,3.017,0,0,1,1.282.248,2.757,2.757,0,0,1,.975.718,3.211,3.211,0,0,1,.612,1.094,4.086,4.086,0,0,1,.2,1.38,4.517,4.517,0,0,1-.27,1.508,3.5,3.5,0,0,1-.676,1.134,2.9,2.9,0,0,1-1,.716,3.332,3.332,0,0,1-2.553,0,2.9,2.9,0,0,1-1-.728,3.166,3.166,0,0,1-.626-1.1,4.041,4.041,0,0,1-.2-1.373M161.448,249a1.394,1.394,0,0,0,1.315-.771,3.041,3.041,0,0,0,.307-.944,7.623,7.623,0,0,0,.1-1.291,5.181,5.181,0,0,0-.044-.67,4.257,4.257,0,0,0-.137-.652,3.358,3.358,0,0,0-.234-.588,2.12,2.12,0,0,0-.334-.48,1.459,1.459,0,0,0-.438-.323,1.245,1.245,0,0,0-.542-.117,1.546,1.546,0,0,0-.8.2,1.587,1.587,0,0,0-.562.579,2.962,2.962,0,0,0-.332.935,6.661,6.661,0,0,0-.108,1.267,4.471,4.471,0,0,0,.049.648,4.308,4.308,0,0,0,.146.65,3.48,3.48,0,0,0,.248.6,2.268,2.268,0,0,0,.349.5,1.545,1.545,0,0,0,.453.336,1.27,1.27,0,0,0,.564.124" transform="translate(-124.771 -242.549)" fill="#fff"/>
      <path id="Trazado_21" data-name="Trazado 21" d="M191.713,249.2l.677-.155V243.6l-.659-.084v-.672h2.733v.672l-.8.088,0,5.492,1.928-.15.654-1.053.544.225-.3,1.592h-4.78Z" transform="translate(-151.163 -242.78)" fill="#fff"/>
      <path id="Trazado_22" data-name="Trazado 22" d="M229.675,249.2l.676-.155V243.6l-.659-.084v-.672h2.733v.672l-.8.088,0,5.492,1.928-.15.654-1.053.544.225-.3,1.592h-4.78Z" transform="translate(-181.096 -242.78)" fill="#fff"/>
      <path id="Trazado_23" data-name="Trazado 23" d="M256.307,249.2l.694-.159v-5.5l-.672-.093v-.6h4.833l.133,1.406h-.725l-.323-.725-1.985-.075v2.414l1.353-.035.195-.677h.65V247.2h-.65l-.195-.69-1.353-.026V249.1l2.237-.111.513-.889.707.137-.225,1.468h-5.187Z" transform="translate(-202.095 -242.78)" fill="#fff"/>
      <path id="Trazado_24" data-name="Trazado 24" d="M284.59,246.215a4.022,4.022,0,0,1,.279-1.534,3.361,3.361,0,0,1,.765-1.154,3.325,3.325,0,0,1,1.145-.725,3.948,3.948,0,0,1,1.424-.252q.429,0,.785.031t.628.073q.272.042.46.086t.281.071l-.084,1.41h-.654l-.332-.765a.4.4,0,0,0-.117-.086,1.22,1.22,0,0,0-.247-.1,2.605,2.605,0,0,0-.38-.077,3.738,3.738,0,0,0-.511-.031,1.839,1.839,0,0,0-.842.2,1.96,1.96,0,0,0-.657.557,2.722,2.722,0,0,0-.429.86,3.76,3.76,0,0,0-.155,1.112,6.041,6.041,0,0,0,.051.785,4.6,4.6,0,0,0,.155.732,3.231,3.231,0,0,0,.265.637,2.023,2.023,0,0,0,.385.5,1.643,1.643,0,0,0,1.161.449,2.321,2.321,0,0,0,.4-.035,2,2,0,0,0,.374-.1,1.3,1.3,0,0,0,.305-.164.685.685,0,0,0,.2-.217v-1.428l-.995-.1v-.606h2.626v.606l-.473.1v2.136a2.03,2.03,0,0,0-.524.049q-.3.062-.646.144t-.734.153a4.376,4.376,0,0,1-.785.071,3.105,3.105,0,0,1-1.285-.259,2.88,2.88,0,0,1-.984-.714,3.243,3.243,0,0,1-.63-1.074,3.918,3.918,0,0,1-.223-1.34" transform="translate(-224.395 -242.55)" fill="#fff"/>
      <path id="Trazado_25" data-name="Trazado 25" d="M315.822,249.2l.606-.159,2.233-6.195h1.159l2.153,6.195.686.163v.509h-2.724V249.2l.65-.172-.305-.995h-2.52l-.314.986.694.177v.513h-2.317Zm4.24-1.853-.646-2.083L319.05,244l-1.07,3.347Z" transform="translate(-249.021 -242.78)" fill="#fff"/>
      <path id="Trazado_26" data-name="Trazado 26" d="M350.293,249.2l.676-.155V243.6l-.659-.084v-.672h2.733v.672l-.8.088,0,5.492,1.928-.15.654-1.053.544.225-.3,1.592h-4.78Z" transform="translate(-276.201 -242.78)" fill="#fff"/>
    </g>
    <g id="isologo" transform="translate(17.297 13.202)">
      <path id="Trazado_27" data-name="Trazado 27" d="M77.849,74.736a11.831,11.831,0,0,1,.415-3.188,10.845,10.845,0,0,1,1.159-2.72,10.474,10.474,0,0,1,1.768-2.2,10.667,10.667,0,0,1,2.248-1.633,11.277,11.277,0,0,1,5.4-1.364,13.877,13.877,0,0,1,1.781.105q.809.106,1.477.244t1.211.29q.544.152.985.244l-.246,4.558H91.917L91.088,66.6a3.416,3.416,0,0,0-.544-.409,2.857,2.857,0,0,0-.667-.283,5.434,5.434,0,0,0-.887-.171,10.527,10.527,0,0,0-1.2-.059,5.061,5.061,0,0,0-2.28.534,5.483,5.483,0,0,0-1.878,1.554,7.765,7.765,0,0,0-1.27,2.516,11.485,11.485,0,0,0-.466,3.419,15.185,15.185,0,0,0,.175,2.318,12.186,12.186,0,0,0,.525,2.141,9.586,9.586,0,0,0,.868,1.857,6.421,6.421,0,0,0,1.2,1.462,5.255,5.255,0,0,0,1.529.955,4.867,4.867,0,0,0,1.852.343,8.533,8.533,0,0,0,1.393-.1,4.954,4.954,0,0,0,1.017-.27,2.535,2.535,0,0,0,.706-.408,2.424,2.424,0,0,0,.46-.514l.92-2.371H94.3v4.308a3.959,3.959,0,0,0-1.043.217q-.564.192-1.341.415a17.783,17.783,0,0,1-1.826.408,14.576,14.576,0,0,1-2.487.184,10.565,10.565,0,0,1-4.087-.751,8.752,8.752,0,0,1-5-5.217,11.343,11.343,0,0,1-.667-3.939" transform="translate(-77.849 -63.394)" fill="#fff"/>
      <path id="Trazado_28" data-name="Trazado 28" d="M219.051,83.439l1.982-.461V66.762l-1.93-.25v-2h8.006v2l-2.331.263-.013,16.362,5.648-.448,1.917-3.135,1.594.672-.868,4.742h-14Z" transform="translate(-189.884 -64.087)" fill="#fff"/>
      <rect id="Rect치ngulo_5" data-name="Rect치ngulo 5" width="1.608" height="20.88" transform="translate(22.638)" fill="#fff"/>
      <g id="Rect치ngulo_100" data-name="Rect치ngulo 100" transform="translate(-14.681 -13.491)" fill="none" stroke="#fff" stroke-width="1">
        <rect width="72" height="48" stroke="none"/>
        <rect x="0.5" y="0.5" width="71" height="47" fill="none"/>
      </g>
    </g>
  </g>
</svg>
