<svg xmlns="http://www.w3.org/2000/svg" width="7.913" height="8.082" viewBox="0 0 7.913 8.082">
  <path id="Trazado_160" data-name="Trazado 160" d="M168.009,43.357v1.787q0,1.787,0,3.574c0,.283-.079.421-.28.49a.414.414,0,0,1-.36-.033.421.421,0,0,1-.191-.3,1.147,1.147,0,0,1-.008-.17v-.035q0-1.84,0-3.679v-.7c-.032.029-.059.052-.082.076L164.67,46.81l-.955.967-2.82,2.857,0,0a1.065,1.065,0,0,1-.189.163.352.352,0,0,1-.191.059.436.436,0,0,1-.361-.616,1.244,1.244,0,0,1,.184-.223l4.363-4.438,1.783-1.813c.027-.027.053-.055.088-.094l.012-.013H165.9l-3.676-.023h-.088a.428.428,0,1,1-.063-.853,2.614,2.614,0,0,1,.363,0h.019c.053,0,.107,0,.16,0l4.672.01h.174C167.871,42.8,168.009,42.939,168.009,43.357Z" transform="translate(-160.096 -42.778)" fill="#f9f9fa"/>
</svg>
