<svg width="41" height="39" viewBox="0 0 41 39" fill="none" xmlns="http://www.w3.org/2000/svg">
<path d="M25.8205 5.25397C25.8717 5.46701 25.9087 5.6034 25.9371 5.74166C26.0617 6.3501 25.6976 6.95841 25.116 7.11789C24.5157 7.28243 23.8766 6.98363 23.6994 6.38423C23.3666 5.25876 23.0631 4.12377 22.7819 2.98426C22.6476 2.43982 22.9855 1.85785 23.5372 1.69651C24.6635 1.36704 25.7975 1.05945 26.9395 0.790128C27.5576 0.644354 28.1256 1.05513 28.2743 1.65998C28.4186 2.24747 28.0741 2.85232 27.4783 3.05265C27.3527 3.09484 27.2237 3.12684 27.0243 3.18419C27.1794 3.29836 27.2922 3.38805 27.4114 3.46822C31.081 5.93666 33.6354 9.26711 34.703 13.5582C36.4565 20.606 34.6029 26.6587 29.1796 31.5115C26.1116 34.2568 22.4267 35.6674 18.3117 35.7241C12.6476 35.8023 6.98166 35.7545 1.31656 35.7616C0.766998 35.7623 0.345178 35.5484 0.114575 35.0351C-0.0890168 34.5822 0.0105167 34.1656 0.327747 33.8006C0.59501 33.493 0.951229 33.4089 1.3469 33.4096C3.89678 33.414 6.44673 33.4141 8.99661 33.4112C12.0897 33.4076 15.1842 33.4588 18.2755 33.3817C25.4366 33.2033 31.6303 27.8638 32.7398 20.7882C33.735 14.4413 31.5115 9.34895 26.3176 5.56155C26.1797 5.46102 26.0269 5.38085 25.8205 5.25397Z" fill="white"/>
<path d="M17.7559 7.62451C23.5839 7.62358 28.3126 12.3577 28.306 18.1865C28.2995 23.9998 23.5718 28.7218 17.7603 28.7196C11.9344 28.7174 7.19655 23.9768 7.2046 18.1577C7.21259 12.3519 11.9471 7.62537 17.7559 7.62451ZM17.7534 26.3716C22.2709 26.3753 25.9486 22.7102 25.9588 18.1943C25.9691 13.6605 22.2974 9.97765 17.7638 9.97453C13.2435 9.9714 9.56739 13.6346 9.55888 18.1506C9.5503 22.686 13.2203 26.3678 17.7534 26.3716Z" fill="white"/>
<path d="M0 17.3415C0.354222 10.7708 3.79658 5.38276 10.4957 2.15264C12.7223 1.07913 15.1121 0.622047 17.583 0.592307C18.3701 0.582792 18.9181 1.04686 18.9295 1.74559C18.9406 2.43035 18.4252 2.92689 17.6498 2.9372C14.8865 2.97386 12.2909 3.64431 9.92408 5.07338C5.92996 7.48507 3.4049 10.9735 2.60943 15.5885C1.73106 20.6847 3.30004 25.0553 6.82104 28.7747C6.9277 28.8874 7.0404 28.9949 7.1414 29.1124C7.57506 29.6171 7.54093 30.3149 7.06449 30.7576C6.61419 31.1759 5.8957 31.1647 5.43802 30.7144C3.67842 28.9835 2.30677 26.9873 1.3473 24.7097C0.466796 22.6196 0.0289419 20.4405 0 17.3415Z" fill="white"/>
<path d="M36.0667 35.7615H35.5978C34.1012 35.7612 32.6046 35.7679 31.108 35.7575C30.3173 35.7519 29.785 35.2052 29.8421 34.4929C29.8936 33.8509 30.3884 33.4156 31.0895 33.4134C32.5639 33.4089 34.0384 33.4118 35.5128 33.4117H36.0031C35.8438 33.2388 35.7578 33.1474 35.6738 33.0541C35.2232 32.5529 35.2307 31.8634 35.6913 31.4069C36.1349 30.9671 36.8459 30.9405 37.3134 31.3913C38.1273 32.1759 38.9269 32.976 39.7127 33.7888C40.142 34.2328 40.1642 34.8774 39.7456 35.3305C38.9408 36.2012 38.1163 37.055 37.2716 37.8869C36.8436 38.3085 36.1202 38.2598 35.7003 37.8467C35.2536 37.4075 35.2184 36.733 35.6215 36.2505C35.7406 36.1079 35.8715 35.9751 36.0667 35.7615Z" fill="white"/>
<path d="M16.5993 19.9532C17.3048 19.2353 17.9701 18.5547 18.6395 17.8782C19.193 17.3189 19.7482 16.7612 20.3082 16.2085C20.8856 15.6388 21.6561 15.6124 22.1674 16.1365C22.6692 16.6508 22.6285 17.4083 22.0629 17.975C20.5909 19.4499 19.1187 20.9243 17.6434 22.3957C16.9066 23.1304 16.2604 23.1226 15.5209 22.3822C14.8316 21.6921 14.1404 21.0039 13.4523 20.3127C12.8718 19.7294 12.842 18.9768 13.3747 18.4559C13.8879 17.9539 14.6418 17.9912 15.2103 18.5541C15.6581 18.9975 16.0986 19.4483 16.5993 19.9532Z" fill="white"/>
</svg>
