<svg width="21" height="21" viewBox="0 0 21 21" fill="none" xmlns="http://www.w3.org/2000/svg">
<path d="M3.66959 18.4493C3.73651 18.044 3.80288 17.6318 3.87287 17.2201C4.06403 16.0962 4.25548 14.9723 4.44963 13.8489C4.49759 13.5716 4.40621 13.3523 4.20827 13.1602C3.22589 12.2069 2.24928 11.2477 1.26442 10.297C0.936544 9.98054 0.669987 9.63487 0.588687 9.174C0.396487 8.08436 1.08597 7.13503 2.19699 6.97094C3.58271 6.76628 4.96876 6.56368 6.35625 6.37158C6.69563 6.32458 6.91756 6.16722 7.06761 5.8579C7.66706 4.62216 8.28427 3.39506 8.88405 2.15952C9.19057 1.52809 9.65859 1.11986 10.3638 1.0191C11.1542 0.906147 11.9081 1.29772 12.2679 2.01641C12.8487 3.17669 13.4191 4.34214 13.9939 5.50541C14.0685 5.65631 14.1421 5.80763 14.2176 5.95804C14.3273 6.177 14.5002 6.3101 14.7456 6.34586C15.8094 6.50087 16.8731 6.65633 17.9367 6.81225C18.3449 6.8721 18.7556 6.91937 19.1603 6.99763C19.8851 7.13784 20.3718 7.57257 20.5902 8.27363C20.8096 8.97782 20.6444 9.61469 20.1239 10.1323C19.1417 11.1089 18.143 12.0689 17.1515 13.0361C17.0738 13.112 16.992 13.1849 16.9227 13.2679C16.786 13.4314 16.7417 13.6219 16.7778 13.8324C16.9713 14.9614 17.1642 16.0906 17.3571 17.2197C17.4129 17.5462 17.481 17.8711 17.5212 18.1994C17.6113 18.936 17.3623 19.5442 16.756 19.9733C16.1564 20.3977 15.4998 20.4482 14.8449 20.1127C13.6564 19.5037 12.477 18.8769 11.2973 18.2509C10.6296 17.8966 10.6143 17.8931 9.94842 18.2448C8.7914 18.8558 7.62751 19.4539 6.47595 20.0749C5.33311 20.6912 4.06458 20.0598 3.76057 18.9736C3.71425 18.808 3.70062 18.6332 3.66959 18.4493ZM5.64873 13.7348C5.64518 13.7729 5.64335 13.8384 5.6325 13.9024C5.38569 15.3583 5.13948 16.8143 4.88899 18.2696C4.83752 18.5684 4.89672 18.8225 5.14975 19.0064C5.39645 19.1857 5.65251 19.171 5.91571 19.0322C7.14512 18.384 8.38142 17.7485 9.60437 17.0884C10.2854 16.7208 10.9391 16.7184 11.6194 17.0836C12.8438 17.741 14.0785 18.3794 15.3072 19.0289C15.5699 19.1678 15.825 19.1867 16.0741 19.0113C16.3314 18.8301 16.3915 18.573 16.3404 18.2763C16.1117 16.9496 15.9043 15.6188 15.6486 14.2973C15.4832 13.4426 15.7004 12.7654 16.3382 12.1701C17.3269 11.2475 18.2803 10.2873 19.2492 9.34348C19.4609 9.13726 19.5581 8.89753 19.4586 8.60623C19.3628 8.32579 19.1567 8.18369 18.8665 8.14164C17.448 7.93611 16.0303 7.725 14.6117 7.51973C13.9493 7.42386 13.4652 7.08138 13.163 6.48692C12.9244 6.01747 12.6952 5.54326 12.462 5.07107C12.0606 4.25814 11.6583 3.44569 11.2591 2.63171C11.1644 2.43869 11.0391 2.28346 10.8266 2.21562C10.4818 2.10557 10.1586 2.25549 9.98268 2.61156C9.35252 3.88674 8.72256 5.16199 8.09449 6.43821C7.80638 7.02358 7.34971 7.39136 6.70554 7.50718C6.33167 7.57436 5.95378 7.61912 5.5777 7.67392C4.49243 7.83212 3.40711 7.98973 2.322 8.14888C2.0785 8.1846 1.89934 8.3133 1.79704 8.53895C1.66469 8.8309 1.73191 9.09996 1.99918 9.36072C3.02564 10.3622 4.05278 11.363 5.07904 12.3646C5.45598 12.7325 5.63872 13.1835 5.64873 13.7348Z" fill="#021C1E" stroke="#021C1E" stroke-width="0.5"/>
</svg>
