<svg xmlns="http://www.w3.org/2000/svg" width="24" height="24" viewBox="0 0 24 24">
  <g id="error" transform="translate(-690 -9861)">
    <path id="Trazado_240" data-name="Trazado 240" d="M4.731,5.558c-.024.03-.038.049-.054.065L1.041,9.262a.64.64,0,0,1-.343.2A.587.587,0,0,1,0,8.9.616.616,0,0,1,.193,8.44L3.841,4.794c.018-.018.038-.033.06-.053l-.055-.058L.2,1.038A.59.59,0,0,1,.021.44.586.586,0,0,1,.992.163l.045.044L4.687,3.859c.013.013.026.029.041.047l.042-.047L8.454.18a.59.59,0,1,1,.839.829c-.068.071-.139.139-.207.207L5.617,4.683a.46.46,0,0,1-.055.041v.024a.344.344,0,0,1,.058.038Q7.442,6.612,9.268,8.432a.618.618,0,0,1,.135.707.587.587,0,0,1-.922.173L8.41,9.244,4.788,5.626c-.018-.018-.032-.039-.057-.069" transform="translate(697 9868.016)" fill="#021c1e"/>
    <g id="Elipse_23" data-name="Elipse 23" transform="translate(690 9861)" fill="none" stroke="#021c1e" stroke-width="1">
      <circle cx="12" cy="12" r="12" stroke="none"/>
      <circle cx="12" cy="12" r="11.5" fill="none"/>
    </g>
  </g>
</svg>
