<svg xmlns="http://www.w3.org/2000/svg" width="20.17" height="20.671" viewBox="0 0 113.17 73.671">
  <g id="Grupo_52" data-name="Grupo 52" transform="translate(-174.091 -8685.423)">
    <g id="Grupo_46" data-name="Grupo 46" transform="translate(174.091 8749.012)">
      <path id="Trazado_15" data-name="Trazado 15" d="M0,247.878a5.593,5.593,0,0,1,.2-1.53,5.159,5.159,0,0,1,.566-1.305,5.033,5.033,0,0,1,.863-1.055,5.2,5.2,0,0,1,1.1-.784,5.531,5.531,0,0,1,1.264-.486,5.6,5.6,0,0,1,1.368-.167,6.9,6.9,0,0,1,.869.05q.4.05.721.117t.591.139q.266.073.48.117L7.9,245.16H6.864l-.4-1.188a1.64,1.64,0,0,0-.265-.2,1.417,1.417,0,0,0-.325-.136,2.689,2.689,0,0,0-.433-.082,5.2,5.2,0,0,0-.588-.028,2.5,2.5,0,0,0-1.113.256,2.663,2.663,0,0,0-.916.746,3.707,3.707,0,0,0-.62,1.207,5.431,5.431,0,0,0-.227,1.64,7.164,7.164,0,0,0,.085,1.112,5.744,5.744,0,0,0,.256,1.027,4.565,4.565,0,0,0,.423.891,3.089,3.089,0,0,0,.588.7,2.559,2.559,0,0,0,.746.458,2.416,2.416,0,0,0,.9.164,4.256,4.256,0,0,0,.679-.047,2.443,2.443,0,0,0,.5-.13,1.24,1.24,0,0,0,.344-.2,1.17,1.17,0,0,0,.224-.247l.449-1.138h.859v2.067a1.956,1.956,0,0,0-.509.1q-.275.092-.654.2a8.8,8.8,0,0,1-.891.2,7.262,7.262,0,0,1-1.213.088,5.226,5.226,0,0,1-1.994-.36,4.343,4.343,0,0,1-1.5-1,4.287,4.287,0,0,1-.942-1.508A5.353,5.353,0,0,1,0,247.878" transform="translate(0 -242.55)" fill="#000"/>
      <path id="Trazado_16" data-name="Trazado 16" d="M30.288,247.694a5.98,5.98,0,0,1,.414-2.152,5.024,5.024,0,0,1,1.027-1.612,4.457,4.457,0,0,1,1.47-1.014,4.566,4.566,0,0,1,1.741-.366,4.312,4.312,0,0,1,1.833.354,3.941,3.941,0,0,1,1.394,1.027,4.591,4.591,0,0,1,.875,1.564,5.84,5.84,0,0,1,.285,1.972,6.457,6.457,0,0,1-.386,2.155,5,5,0,0,1-.967,1.621,4.152,4.152,0,0,1-1.425,1.024,4.763,4.763,0,0,1-3.65,0,4.144,4.144,0,0,1-1.429-1.04,4.524,4.524,0,0,1-.894-1.57,5.777,5.777,0,0,1-.288-1.963m4.583,4.077a1.994,1.994,0,0,0,1.88-1.1,4.347,4.347,0,0,0,.439-1.349,10.9,10.9,0,0,0,.139-1.846,7.4,7.4,0,0,0-.063-.958,6.087,6.087,0,0,0-.2-.932,4.8,4.8,0,0,0-.335-.841,3.033,3.033,0,0,0-.477-.686,2.087,2.087,0,0,0-.626-.461,1.779,1.779,0,0,0-.774-.168,2.21,2.21,0,0,0-1.141.285,2.269,2.269,0,0,0-.8.828,4.234,4.234,0,0,0-.474,1.337,9.524,9.524,0,0,0-.155,1.811,6.4,6.4,0,0,0,.07.926,6.17,6.17,0,0,0,.209.929,4.974,4.974,0,0,0,.354.86,3.241,3.241,0,0,0,.5.711,2.209,2.209,0,0,0,.648.48,1.816,1.816,0,0,0,.806.177" transform="translate(-21.129 -242.549)" fill="#000"/>
      <path id="Trazado_17" data-name="Trazado 17" d="M63.549,251.925l1.03-.246v-7.749l-.986-.126v-.961h2.794l3.988,6.75.708,1.65v-7.3l-1.1-.152v-.948h3.249v.948l-.948.133v8.735H70.318l-3.761-6.131-.759-1.751v6.89l1.258.259v.733H63.549Z" transform="translate(-44.334 -242.753)" fill="#000"/>
      <path id="Trazado_18" data-name="Trazado 18" d="M99.6,251.925l1.5-.228v-7.951l-1.978.151-.436,1.239-.9.038.152-2.332H106l-.013,2.3-.733.083-.417-1.328-1.934-.151v7.945l1.517.234v.733H99.6Z" transform="translate(-68.222 -242.753)" fill="#000"/>
      <path id="Trazado_19" data-name="Trazado 19" d="M127.2,251.721l1.138-.24v-7.793l-1-.133v-.917h1.523q.645,0,1.274-.044t1.179-.044a7.274,7.274,0,0,1,1.435.133,3.392,3.392,0,0,1,1.141.436,2.156,2.156,0,0,1,.755.8,2.5,2.5,0,0,1,.272,1.22,2.922,2.922,0,0,1-.544,1.8,3.226,3.226,0,0,1-1.586,1.087,1.747,1.747,0,0,1,.544.417,5.017,5.017,0,0,1,.493.645q.234.36.448.752t.414.736a6.032,6.032,0,0,0,.389.6,1.02,1.02,0,0,0,.373.335l.758.215v.733h-2.3a.4.4,0,0,1-.288-.18,2.755,2.755,0,0,1-.3-.477q-.155-.3-.322-.673l-.341-.768q-.174-.392-.364-.768a5.25,5.25,0,0,0-.395-.667,2.243,2.243,0,0,0-.424-.465.657.657,0,0,0-.452-.161l-.872.013V251.5l1.251.221v.733H127.2Zm2.939-4.317q.114.019.275.031c.108.008.218.014.332.016s.225,0,.335,0,.209-.007.3-.016a2.38,2.38,0,0,0,.657-.129,1.494,1.494,0,0,0,.56-.351,1.705,1.705,0,0,0,.389-.639,2.894,2.894,0,0,0,.145-.986,2.644,2.644,0,0,0-.1-.736,1.518,1.518,0,0,0-.341-.613,1.607,1.607,0,0,0-.638-.411,2.758,2.758,0,0,0-.986-.142l-.5.016a1.385,1.385,0,0,0-.427.073Z" transform="translate(-88.741 -242.55)" fill="#000"/>
      <path id="Trazado_20" data-name="Trazado 20" d="M158.243,247.694a5.98,5.98,0,0,1,.414-2.152,5.024,5.024,0,0,1,1.027-1.612,4.457,4.457,0,0,1,1.47-1.014,4.566,4.566,0,0,1,1.741-.366,4.312,4.312,0,0,1,1.833.354,3.941,3.941,0,0,1,1.394,1.027,4.591,4.591,0,0,1,.875,1.564,5.841,5.841,0,0,1,.285,1.972,6.458,6.458,0,0,1-.386,2.155,5,5,0,0,1-.967,1.621,4.152,4.152,0,0,1-1.425,1.024,4.763,4.763,0,0,1-3.65,0,4.144,4.144,0,0,1-1.429-1.04,4.524,4.524,0,0,1-.894-1.57,5.777,5.777,0,0,1-.288-1.963m4.583,4.077a1.994,1.994,0,0,0,1.88-1.1,4.347,4.347,0,0,0,.439-1.349,10.9,10.9,0,0,0,.139-1.846,7.4,7.4,0,0,0-.063-.958,6.085,6.085,0,0,0-.2-.932,4.8,4.8,0,0,0-.335-.841,3.033,3.033,0,0,0-.477-.686,2.087,2.087,0,0,0-.626-.461,1.779,1.779,0,0,0-.774-.168,2.21,2.21,0,0,0-1.141.285,2.269,2.269,0,0,0-.8.828,4.235,4.235,0,0,0-.474,1.337,9.523,9.523,0,0,0-.155,1.811,6.4,6.4,0,0,0,.07.926,6.171,6.171,0,0,0,.209.929,4.974,4.974,0,0,0,.354.86,3.241,3.241,0,0,0,.5.711,2.209,2.209,0,0,0,.648.48,1.816,1.816,0,0,0,.806.177" transform="translate(-110.396 -242.549)" fill="#000"/>
      <path id="Trazado_21" data-name="Trazado 21" d="M191.713,251.925l.967-.221v-7.781l-.942-.12v-.961h3.906v.961l-1.138.126-.006,7.85,2.756-.215.936-1.5.777.322-.424,2.276h-6.833Z" transform="translate(-133.747 -242.753)" fill="#000"/>
      <path id="Trazado_22" data-name="Trazado 22" d="M229.675,251.925l.967-.221v-7.781l-.942-.12v-.961h3.906v.961l-1.138.126-.006,7.85,2.756-.215.935-1.5.777.322-.423,2.276h-6.833Z" transform="translate(-160.231 -242.753)" fill="#000"/>
      <path id="Trazado_23" data-name="Trazado 23" d="M256.307,251.925l.992-.228v-7.869l-.961-.133v-.853h6.909l.19,2.01H262.4l-.461-1.036-2.838-.108v3.451l1.935-.05.278-.967h.929v2.927h-.929l-.278-.986-1.935-.038v3.748l3.2-.158.733-1.27,1.011.2-.322,2.1h-7.414Z" transform="translate(-178.81 -242.753)" fill="#000"/>
      <path id="Trazado_24" data-name="Trazado 24" d="M284.59,247.79a5.749,5.749,0,0,1,.4-2.193,4.8,4.8,0,0,1,1.094-1.649,4.753,4.753,0,0,1,1.637-1.037,5.643,5.643,0,0,1,2.035-.36q.613,0,1.122.044t.9.1q.389.06.657.123t.4.1l-.12,2.016h-.935l-.474-1.093a.57.57,0,0,0-.168-.123,1.744,1.744,0,0,0-.354-.139,3.727,3.727,0,0,0-.544-.111,5.341,5.341,0,0,0-.73-.044,2.63,2.63,0,0,0-1.2.291,2.8,2.8,0,0,0-.939.8,3.888,3.888,0,0,0-.613,1.229,5.373,5.373,0,0,0-.221,1.589,8.621,8.621,0,0,0,.073,1.122,6.57,6.57,0,0,0,.221,1.046,4.62,4.62,0,0,0,.379.91,2.893,2.893,0,0,0,.55.717,2.384,2.384,0,0,0,.733.471,2.409,2.409,0,0,0,.926.171,3.31,3.31,0,0,0,.572-.051,2.863,2.863,0,0,0,.534-.145,1.863,1.863,0,0,0,.436-.234.979.979,0,0,0,.284-.31v-2.042l-1.422-.146v-.866h3.754v.866l-.676.139v3.053a2.9,2.9,0,0,0-.749.07q-.426.089-.923.205t-1.049.218a6.251,6.251,0,0,1-1.122.1,4.439,4.439,0,0,1-1.836-.37,4.117,4.117,0,0,1-1.407-1.021,4.635,4.635,0,0,1-.9-1.536,5.6,5.6,0,0,1-.319-1.915" transform="translate(-198.541 -242.55)" fill="#000"/>
      <path id="Trazado_25" data-name="Trazado 25" d="M315.822,251.925l.866-.228,3.192-8.855h1.656l3.078,8.855.98.234v.727H321.7v-.727l.929-.246-.436-1.422h-3.6l-.448,1.41.992.253v.733h-3.312Zm6.061-2.648-.923-2.977-.525-1.808-1.53,4.785Z" transform="translate(-220.33 -242.753)" fill="#000"/>
      <path id="Trazado_26" data-name="Trazado 26" d="M350.293,251.925l.967-.221v-7.781l-.942-.12v-.961h3.906v.961l-1.138.126-.006,7.85,2.756-.215.936-1.5.777.322-.423,2.276h-6.833Z" transform="translate(-244.378 -242.753)" fill="#000"/>
    </g>
    <g id="isologo" transform="translate(177.328 8685.423)">
      <path id="Trazado_27" data-name="Trazado 27" d="M77.849,89.436a27.063,27.063,0,0,1,.98-7.408,24.982,24.982,0,0,1,2.74-6.321,24.419,24.419,0,0,1,4.178-5.112,25.193,25.193,0,0,1,5.311-3.8,26.78,26.78,0,0,1,6.122-2.357,27.093,27.093,0,0,1,6.627-.811,33.346,33.346,0,0,1,4.209.245q1.912.245,3.49.566t2.862.674q1.286.352,2.327.566l-.582,10.591h-5.02l-1.959-5.754a8.063,8.063,0,0,0-1.286-.949,6.812,6.812,0,0,0-1.577-.658,13.039,13.039,0,0,0-2.1-.4,25.3,25.3,0,0,0-2.847-.138,12.124,12.124,0,0,0-5.388,1.24A12.911,12.911,0,0,0,91.5,73.228a17.933,17.933,0,0,0-3,5.846,26.273,26.273,0,0,0-1.1,7.944,34.709,34.709,0,0,0,.413,5.387,27.93,27.93,0,0,0,1.24,4.974A22.107,22.107,0,0,0,91.1,101.7a14.979,14.979,0,0,0,2.847,3.4,12.449,12.449,0,0,0,3.612,2.219,11.674,11.674,0,0,0,4.377.8,20.5,20.5,0,0,0,3.291-.229,11.866,11.866,0,0,0,2.4-.628,6.017,6.017,0,0,0,1.668-.949,5.665,5.665,0,0,0,1.087-1.194l2.174-5.51h4.163v10.01a9.491,9.491,0,0,0-2.464.5q-1.332.445-3.168.965a42.621,42.621,0,0,1-4.316.949,35.016,35.016,0,0,1-5.877.429,25.338,25.338,0,0,1-9.658-1.745,21.059,21.059,0,0,1-7.255-4.822,20.774,20.774,0,0,1-4.561-7.3,25.963,25.963,0,0,1-1.577-9.153" transform="translate(-77.849 -63.079)" fill="#000"/>
      <path id="Trazado_28" data-name="Trazado 28" d="M219.051,108.5l4.683-1.071V69.743l-4.561-.581V64.509h18.917v4.653l-5.509.612-.031,38.019,13.346-1.041,4.53-7.286,3.766,1.561-2.052,11.02h-33.09Z" transform="translate(-150.129 -63.529)" fill="#000"/>
      <rect id="Rectángulo_5" data-name="Rectángulo 5" width="3.799" height="48.518" transform="translate(53.493 0)" fill="#000"/>
    </g>
  </g>
</svg>
