<svg width="16" height="16" viewBox="0 0 16 16" fill="none" xmlns="http://www.w3.org/2000/svg">
<path d="M15.7704 1.40643V4.80011C15.7704 7.06236 15.7711 9.32525 15.7704 11.5875C15.7699 12.1257 15.6206 12.3869 15.2381 12.5191C14.9974 12.6026 14.7543 12.5798 14.5546 12.4558C14.3575 12.3344 14.2287 12.1282 14.1914 11.8771C14.1759 11.769 14.1765 11.6596 14.1772 11.5533L14.1778 11.4869C14.1772 9.15765 14.1772 6.82835 14.1772 4.49906V3.16716C14.1156 3.22154 14.0658 3.26517 14.021 3.31134C12.4899 4.8621 10.9594 6.41284 9.42881 7.96359L7.61528 9.80085C5.82982 11.6103 4.04428 13.419 2.25876 15.2278L2.25131 15.2354C2.13877 15.3493 2.02614 15.4631 1.89247 15.546C1.77678 15.62 1.65428 15.6573 1.52924 15.6573C1.34459 15.6573 1.16481 15.5732 1.00875 15.4144C0.72391 15.1222 0.663562 14.7839 0.843936 14.4866C0.936618 14.3323 1.06223 14.1982 1.19408 14.0635C3.95598 11.2536 6.71788 8.44425 9.47982 5.6343L12.8668 2.19002C12.9184 2.13816 12.9669 2.08504 13.0334 2.01231L13.0564 1.98764C12.942 1.98764 12.8307 1.98764 12.7219 1.98828C12.3891 1.9889 12.0744 1.9889 11.7629 1.987C9.43627 1.9731 7.10849 1.95854 4.7806 1.944L4.614 1.94273C4.08473 1.93894 3.76381 1.66129 3.73332 1.18126C3.70288 0.717689 4.00884 0.372379 4.49456 0.322403C4.73151 0.298385 4.97219 0.307869 5.18485 0.316097L5.22034 0.31736C5.32041 0.320507 5.42369 0.324306 5.52446 0.324306C8.48224 0.33128 11.4401 0.33696 14.3973 0.342655L14.7275 0.343292C15.5074 0.344539 15.7704 0.612709 15.7704 1.40643Z" fill="#6EB98E"/>
</svg>
