<svg width="31" height="31" viewBox="0 0 31 31" fill="none" xmlns="http://www.w3.org/2000/svg">
<path d="M30.0635 16.8566C29.9768 16.7053 29.8865 16.5529 29.8224 16.3911C29.5339 15.6646 29.6889 15.0005 30.0703 14.3401C31.0585 12.628 30.4938 10.5087 28.8026 9.49057C28.6377 9.3918 28.4664 9.29986 28.3156 9.18166C27.7104 8.70568 27.4998 8.06685 27.5008 7.30981C27.5034 5.28456 25.9184 3.69588 23.9021 3.71532C22.9123 3.72477 22.2294 3.31132 21.7445 2.45971C20.7552 0.723934 18.606 0.14394 16.877 1.1521C16.0097 1.65749 15.2001 1.65592 14.3327 1.14632C12.6311 0.14499 10.4535 0.729187 9.48106 2.44343C8.98565 3.3171 8.28902 3.72635 7.27981 3.71689C5.30184 3.69851 3.6974 5.30662 3.71421 7.28985C3.72262 8.30063 3.31337 9.00461 2.43392 9.48689C1.6774 9.90244 1.1594 10.5455 0.871507 11.3614C0.50691 12.3953 0.601999 13.395 1.14574 14.3454C1.39844 14.7867 1.62645 15.2469 1.52925 15.7581C1.45413 16.1526 1.29862 16.543 1.11527 16.9023C0.673973 17.7665 0.528975 18.6538 0.790077 19.5958C1.05276 20.5446 1.61174 21.2706 2.46702 21.7535C2.98134 22.044 3.40741 22.4122 3.5792 22.9875C3.67008 23.2917 3.69635 23.6232 3.70055 23.9431C3.72262 25.6012 4.8285 27.0118 6.43714 27.3958C6.72188 27.4636 7.01503 27.4951 7.33077 27.5481C7.33077 27.5481 8.22703 27.4725 8.84905 27.9054C9.06865 28.2069 9.27775 28.4481 9.43588 28.7192C9.9418 29.5849 10.6668 30.1602 11.6298 30.4334C12.3148 30.6273 12.9957 30.591 13.6708 30.3793C13.7343 30.3593 13.8 30.3462 13.8646 30.3299C13.8646 30.3299 15.3498 28.8867 17.27 30.3199C17.3998 30.3478 17.4696 30.3562 17.5353 30.3772C19.2012 30.8983 20.874 30.2516 21.7608 28.7454C21.8669 28.5652 21.9909 28.3955 22.1101 28.2232C22.1753 28.1297 22.2472 28.0404 22.3586 27.8933C22.3586 27.8933 22.6975 27.3002 23.8858 27.5303C23.9993 27.5182 24.0671 27.5093 24.1354 27.504C26.0645 27.3585 27.5113 25.8507 27.4982 23.9395C27.4913 22.9308 27.9048 22.2389 28.7727 21.7366C30.5111 20.7295 31.0569 18.5992 30.0635 16.8566ZM27.9537 20.5031C26.9387 21.0747 26.2967 21.9105 26.0797 23.0563C26.0298 23.3201 26.0282 23.5959 26.0267 23.8664C26.0188 25.1189 25.1246 26.0351 23.8769 26.0246C22.3513 26.0115 21.2328 26.6655 20.4815 27.9905C19.87 29.069 18.6344 29.3916 17.5616 28.7607C16.2676 27.9989 14.9836 27.9926 13.6834 28.7439C12.5428 29.4021 11.3513 29.0696 10.6967 27.9301C9.96596 26.6587 8.87059 26.0199 7.39854 26.0267C6.0799 26.0325 5.18049 25.1373 5.18889 23.8218C5.19835 22.3487 4.56004 21.2565 3.28973 20.5215C2.12659 19.8485 1.82188 18.6596 2.49749 17.4897C3.22038 16.2377 3.2209 14.9779 2.49486 13.727C1.8203 12.5634 2.13236 11.3661 3.2934 10.6957C4.55426 9.96811 5.19414 8.88273 5.18837 7.42013C5.18311 6.08152 6.06939 5.18842 7.40432 5.19315C8.87742 5.19892 9.96806 4.55431 10.7004 3.28557C11.3582 2.14713 12.557 1.81983 13.6897 2.47863C14.9784 3.22884 16.2582 3.22306 17.5432 2.46864C18.6396 1.82456 19.8642 2.1508 20.4983 3.25826C21.2086 4.49967 22.2593 5.21469 23.6998 5.17791C25.0416 5.14376 26.1223 6.11725 26.0167 7.62502C26.0671 8.93894 26.696 10.0075 27.939 10.7052C28.7044 11.1344 29.1063 11.7885 29.059 12.6611C29.0411 12.9963 28.9229 13.3556 28.7543 13.6477C27.9915 14.9679 27.991 16.2624 28.7648 17.5753C29.3968 18.647 29.0543 19.8832 27.9537 20.5031Z" fill="#021C1E"/>
<path d="M22.119 15.7948C22.1027 14.6637 21.2128 13.6739 20.089 13.5289C19.6756 13.4759 19.2542 13.4806 18.7935 13.4569C18.9291 13.0424 19.0641 12.6652 19.1744 12.2812C19.4192 11.4312 19.0588 10.5118 18.3112 10.0442C17.3614 9.45004 16.1573 9.72584 15.5379 10.703C15.0251 11.511 14.4063 12.2124 13.6287 12.7729C13.5037 12.8633 13.4044 12.8806 13.2499 12.815C13.0535 12.7314 12.8307 12.6773 12.6179 12.672C11.9008 12.6552 11.1827 12.6573 10.465 12.6684C9.67646 12.6804 9.09383 13.2704 9.09175 14.0601C9.08701 16.0727 9.08701 18.0859 9.09227 20.099C9.09438 20.8807 9.66649 21.4613 10.4466 21.4739C11.1821 21.486 11.9171 21.4749 12.6526 21.4776C12.9909 21.4786 13.2935 21.3772 13.542 21.1497C13.6571 21.0441 13.7527 21.0504 13.8935 21.0893C14.3805 21.2238 14.8707 21.424 15.365 21.4403C16.877 21.4897 18.3927 21.4944 19.9057 21.4602C21.104 21.434 22.1006 20.3811 22.119 19.1818C22.1369 18.0528 22.1358 16.9232 22.119 15.7948ZM12.5586 19.7675C12.5591 19.9393 12.4992 19.9987 12.3301 19.996C11.8225 19.9892 11.315 19.9871 10.8081 19.9971C10.6247 20.0008 10.5675 19.9404 10.569 19.757C10.5769 18.856 10.5727 17.955 10.5727 17.0541C10.5727 16.1704 10.5774 15.2873 10.569 14.4036C10.5669 14.2129 10.6174 14.1404 10.8181 14.1452C11.3166 14.1578 11.8152 14.1546 12.3138 14.1467C12.4934 14.1436 12.5596 14.2035 12.5591 14.3879C12.5538 16.1815 12.5544 17.9745 12.5586 19.7675ZM20.6438 18.9422C20.6422 19.6388 20.2918 19.9913 19.5957 19.9929C18.3795 19.9955 17.1639 19.9898 15.9476 19.9955C15.3608 19.9976 14.8045 19.8763 14.2654 19.6488C14.0968 19.5774 14.0322 19.4802 14.0348 19.2921C14.0453 18.4962 14.039 17.7003 14.039 16.9038C14.039 16.1079 14.0322 15.3115 14.0469 14.516C14.049 14.3994 14.1226 14.2392 14.2155 14.1767C15.2542 13.4759 16.1037 12.5985 16.7641 11.5347C16.9401 11.2499 17.1975 11.159 17.4528 11.2646C17.6976 11.3655 17.8279 11.6392 17.7375 11.9224C17.5836 12.4046 17.416 12.8833 17.2416 13.3587C17.2132 13.4349 17.1276 13.5053 17.0514 13.5457C16.7105 13.7259 16.5455 14.0375 16.6217 14.3873C16.6979 14.7378 16.9695 14.9579 17.364 14.9621C18.0722 14.9694 18.7809 14.9642 19.4896 14.9652C20.3008 14.9668 20.6438 15.3067 20.6444 16.1079C20.6449 17.053 20.6459 17.9976 20.6438 18.9422Z" fill="#021C1E"/>
<path d="M15.5915 4.59216C9.55149 4.59216 4.63782 9.50582 4.63782 15.5459C4.63782 21.5859 9.55149 26.4995 15.5915 26.4995C21.6315 26.4995 26.5452 21.5859 26.5452 15.5459C26.5452 9.50582 21.6315 4.59216 15.5915 4.59216ZM15.5915 25.1336C10.3048 25.1336 6.00375 20.8325 6.00375 15.5459C6.00375 10.2592 10.3048 5.95808 15.5915 5.95808C20.8781 5.95808 25.1793 10.2592 25.1793 15.5459C25.1793 20.8325 20.8781 25.1336 15.5915 25.1336Z" fill="#021C1E"/>
</svg>
