<svg width="22" height="27" viewBox="0 0 22 27" fill="none" xmlns="http://www.w3.org/2000/svg">
<path d="M21.7694 9.56918C21.7746 11.0195 21.7139 12.4664 21.5225 13.9053C21.269 15.8112 20.7839 17.6479 19.875 19.3568C18.9212 21.1501 17.6115 22.6275 15.9606 23.8086C14.5973 24.784 13.1038 25.5009 11.5323 26.0652C11.108 26.2175 10.6758 26.2196 10.2514 26.0685C8.69076 25.5127 7.20848 24.8027 5.85175 23.8411C3.51518 22.1851 1.9149 19.9885 1.00386 17.2806C0.535272 15.8878 0.289455 14.4515 0.146364 12.993C-0.057918 10.9111 -0.00581402 8.82576 0.050502 6.74059C0.0877859 5.35932 1.09629 4.26908 2.47158 4.09615C3.15428 4.01031 3.84267 3.9549 4.51803 3.82951C5.70835 3.6085 6.82371 3.17571 7.8606 2.54173C8.53518 2.12927 9.14113 1.63288 9.72024 1.09939C10.0151 0.827721 10.3563 0.650778 10.7615 0.6195C11.2658 0.580539 11.6898 0.76614 12.055 1.10146C12.6397 1.63841 13.25 2.13999 13.9317 2.55343C15.0913 3.2568 16.3431 3.70214 17.6797 3.90622C18.2441 3.99241 18.8145 4.03914 19.3819 4.10637C20.6295 4.25426 21.6874 5.38893 21.7157 6.64558C21.7375 7.61965 21.72 8.59461 21.72 9.56918H21.7694ZM20.3264 9.63599C20.2926 9.63474 20.2589 9.63353 20.225 9.63228C20.225 8.70303 20.2258 7.77377 20.2246 6.84452C20.2242 6.55776 20.1505 6.29408 19.9758 6.06027C19.7063 5.6996 19.3229 5.60713 18.9019 5.55756C18.1415 5.46798 17.3736 5.39938 16.6278 5.23538C14.6002 4.78954 12.8173 3.85545 11.2928 2.43592C10.845 2.01894 10.932 2.01687 10.4805 2.4362C9.02085 3.79188 7.32182 4.70077 5.39233 5.18145C4.55835 5.38924 3.70933 5.50464 2.85218 5.56388C2.01115 5.62203 1.563 6.07805 1.54853 6.8838C1.5449 7.08523 1.53812 7.28659 1.53394 7.48802C1.49003 9.60674 1.45142 11.7256 1.75075 13.8322C1.92476 15.0569 2.19667 16.2576 2.65005 17.4131C3.41016 19.3503 4.59825 20.9695 6.23571 22.2561C7.58343 23.3151 9.09636 24.0652 10.7069 24.6278C10.8185 24.6668 10.9679 24.6636 11.0802 24.6242C12.484 24.132 13.8166 23.4942 15.0322 22.6293C16.6355 21.4884 17.882 20.0447 18.743 18.2684C19.4718 16.7652 19.8709 15.1673 20.0568 13.5225C20.2024 12.2333 20.2405 10.9319 20.3264 9.63599Z" fill="#021C1E"/>
<path d="M17.2591 13.392C17.2383 16.898 14.4486 19.737 10.9017 19.7687C7.41708 19.7998 4.51708 16.9228 4.51868 13.4035C4.52027 9.87416 7.34996 7.03512 10.8901 7.02858C14.3976 7.02211 17.2417 9.88064 17.2591 13.392ZM10.8613 18.266C13.4986 18.2726 15.718 16.17 15.7508 13.4467C15.7825 10.8232 13.6876 8.5567 10.92 8.5326C8.27266 8.50956 6.03792 10.6218 6.02077 13.3783C6.00443 16.0096 8.10243 18.2296 10.8613 18.266Z" fill="#021C1E"/>
<path d="M9.79346 14.401C9.89628 14.2776 9.98325 14.1556 10.0875 14.0508C10.935 13.1988 11.7872 12.3516 12.6343 11.4993C12.8491 11.2832 13.0898 11.1507 13.4009 11.2189C13.9906 11.3482 14.1964 12.0415 13.7695 12.4847C13.3145 12.9571 12.8446 13.415 12.381 13.879C11.72 14.5406 11.0592 15.2023 10.3976 15.8632C9.95868 16.3016 9.55698 16.3015 9.11896 15.8634C8.71021 15.4547 8.29984 15.0474 7.89527 14.6346C7.68717 14.4223 7.62406 14.1623 7.7136 13.8793C7.80074 13.6037 7.99625 13.432 8.28055 13.3737C8.53397 13.3216 8.75876 13.3925 8.94407 13.5697C9.16465 13.7805 9.3776 13.9994 9.59446 14.2142C9.64441 14.2636 9.69687 14.3105 9.79346 14.401Z" fill="#021C1E"/>
</svg>
