<svg xmlns="http://www.w3.org/2000/svg" width="29.192" height="20.435" viewBox="0 0 29.192 20.435">
  <path id="Trazado_33" data-name="Trazado 33" d="M53.947,80.756a6.406,6.406,0,0,0-6.406-6.405H31.16a6.405,6.405,0,0,0-6.405,6.405v7.623a6.406,6.406,0,0,0,6.405,6.406h16.38a6.407,6.407,0,0,0,6.406-6.406ZM44.313,85.14l-7.345,3.634c-.288.156-1.267-.053-1.267-.38v-7.46c0-.332.987-.54,1.275-.376l7.032,3.826C44.3,84.551,44.612,84.978,44.313,85.14Z" transform="translate(-24.755 -74.351)" fill="#fff"/>
</svg>
